<?xml version="1.0" standalone="no"?>
<!DOCTYPE svg PUBLIC "-//W3C//DTD SVG 20010904//EN"
 "http://www.w3.org/TR/2001/REC-SVG-20010904/DTD/svg10.dtd">
<svg version="1.0" xmlns="http://www.w3.org/2000/svg"
 width="800.000000pt" height="800.000000pt" viewBox="0 0 800.000000 800.000000"
 preserveAspectRatio="xMidYMid meet">
<metadata>
Created by potrace 1.14, written by Peter Selinger 2001-2017
</metadata>
<g transform="translate(0.000000,800.000000) scale(0.100000,-0.100000)"
fill="#000000" stroke="none">
<path d="M2837 7254 c-1 -1 -42 -4 -92 -7 -49 -4 -101 -8 -115 -11 -14 -2 -43
-7 -65 -10 -22 -3 -51 -8 -65 -11 -14 -3 -34 -7 -45 -9 -100 -20 -263 -72
-376 -119 -522 -217 -945 -639 -1165 -1163 -39 -94 -94 -261 -109 -328 -2 -12
-7 -32 -10 -46 -12 -52 -24 -118 -29 -161 -3 -24 -9 -64 -12 -89 -8 -52 -12
-4524 -4 -4543 4 -10 156 -12 722 -12 l718 0 3 2225 c1 1224 6 2239 10 2255
60 235 191 406 387 505 65 33 175 67 240 74 25 3 542 5 1150 5 l1105 1 0 720
c0 396 -2 721 -5 721 -6 2 -2241 4 -2243 3z"/>
<path d="M5809 5060 c0 -1207 -2 -2204 -4 -2215 -2 -11 -7 -39 -10 -61 -6 -51
-35 -135 -65 -194 -100 -197 -271 -328 -505 -387 -16 -4 -543 -10 -1170 -13
l-1140 -5 0 -720 0 -720 1125 0 c1272 1 1279 1 1510 51 539 117 1019 443 1332
904 35 52 71 109 80 125 9 17 30 57 48 90 74 138 164 383 195 533 8 34 33 191
41 257 7 50 13 4507 6 4535 -3 13 -91 15 -723 15 l-719 0 -1 -2195z"/>
<path d="M2916 5080 c-2 -5 0 -684 3 -706 1 -9 140 -11 516 -10 283 0 515 -2
515 -5 0 -3 -73 -56 -162 -118 -90 -62 -318 -220 -508 -351 -190 -131 -350
-242 -355 -247 -7 -6 -10 -139 -10 -369 l0 -359 1082 0 c738 -1 1084 3 1086
10 2 5 3 168 3 360 l-1 350 -473 1 c-260 1 -475 3 -477 6 -3 3 889 678 939
710 11 7 17 726 6 729 -17 5 -2162 4 -2164 -1z"/>
</g>
</svg>
