<svg version="1" xmlns="http://www.w3.org/2000/svg" width="373.333" height="373.333" viewBox="0 0 280.000000 280.000000"><path d="M82.9.5c-.2.1-2.5.6-5.1.9C66.1 3 49.2 10 38.8 17.7 20.9 30.9 8.9 48.7 2.7 71 .6 78.3.6 80.8.3 179.2L-.1 280H62l.1-2.3c0-1.2.1-44.7.2-96.7l.2-94.5 3.3-6.7c3.6-7.3 7.9-11.4 15.9-15.1 4.7-2.1 5.6-2.2 51.8-2.4 25.9-.1 48.4-.2 50.1-.3h3.1V-.1l-51.8.1c-28.4.1-51.9.3-52 .5z"/><path d="M218 2.2c-.1 1.3-.2 44.8-.3 96.8l-.2 94.5-2.6 5.5c-3.7 8-7.2 11.5-14.7 15.2l-6.7 3.3-47.7.2c-26.3.1-48.9.2-50.1.2l-2.4.1.1 30.8.1 30.7 51 .2c46.1.2 51.9 0 60.1-1.6 35.9-7.4 62.4-32.4 72.7-69 2.1-7.5 2.2-8.9 2.5-108.4L280.1 0H218v2.2z"/><path d="M93.7 94.4c-.2.6-.4 7.6-.3 15.6l.1 14.5h22.2c12.2 0 21.9.2 21.6.5-.2.3-10.2 7.2-22.1 15.5l-21.7 15v31h93v-31h-20.2c-13.5 0-19.9-.3-19.2-1 .5-.5 9.6-7.5 20.2-15.5l19.2-14.5.2-15.6.1-15.5-46.3-.1c-32.8 0-46.5.3-46.8 1.1z"/></svg>